<svg width="1440" height="582" viewBox="0 0 1440 582" fill="none" xmlns="http://www.w3.org/2000/svg">
<path d="M0 530.51C202.703 530.51 347.472 495.633 480.333 497.758C789.74 502.705 643.639 355.682 960.667 355.682C1305.86 355.682 1223.24 226 1441 226" stroke="#5F82FF" stroke-width="3"/>
<path d="M480.333 497.758C347.472 495.633 202.703 530.51 0 530.51V573H1441V226C1223.24 226 1305.86 355.682 960.667 355.682C643.639 355.682 789.74 502.705 480.333 497.758Z" fill="url(#paint0_linear_90444_2)" fill-opacity="0.4"/>
<line x1="924.5" y1="308" x2="924.5" y2="497" stroke="#D8E0F7"/>
<g filter="url(#filter0_d_90444_2)">
<circle cx="924.5" cy="356.5" r="7.5" fill="white"/>
<circle cx="924.5" cy="356.5" r="6.5" stroke="#5E80FE" stroke-width="2"/>
</g>
<line x1="1332.5" y1="108" x2="1332.5" y2="425" stroke="#D8E0F7"/>
<g filter="url(#filter1_d_90444_2)">
<circle cx="1332.5" cy="242.5" r="7.5" fill="white"/>
<circle cx="1332.5" cy="242.5" r="6.5" stroke="#5E80FE" stroke-width="2"/>
</g>
<line x1="515.5" y1="486" x2="515.5" y2="545" stroke="#D8E0F7"/>
<line x1="107.5" y1="370" x2="107.5" y2="560" stroke="#D8E0F7"/>
<g filter="url(#filter2_d_90444_2)">
<circle cx="107.5" cy="527.5" r="7.5" fill="white"/>
<circle cx="107.5" cy="527.5" r="6.5" stroke="#5E80FE" stroke-width="2"/>
</g>
<g filter="url(#filter3_d_90444_2)">
<path d="M264.72 401.48C258.247 401.48 253 406.83 253 413.429H276.441C276.441 406.83 271.194 401.48 264.72 401.48Z" fill="white"/>
</g>
<g filter="url(#filter4_d_90444_2)">
<path d="M1439.5 410C1408.85 410 1384 434.624 1384 465H1439.5V410Z" fill="white"/>
</g>
<g filter="url(#filter5_d_90444_2)">
<path d="M310.683 407.455C301.672 407.455 294.366 414.862 294.366 424H327C327 414.862 319.695 407.455 310.683 407.455Z" fill="white"/>
</g>
<g filter="url(#filter6_d_90444_2)">
<path d="M286.093 399.182C272.386 399.182 261.273 410.293 261.273 424H310.913C310.913 410.293 299.801 399.182 286.093 399.182Z" fill="white"/>
</g>
<g filter="url(#filter7_d_90444_2)">
<path d="M1205.01 497.459C1186.23 497.459 1171 512.924 1171 532H1239.02C1239.02 512.924 1223.79 497.459 1205.01 497.459Z" fill="white"/>
</g>
<g filter="url(#filter8_d_90444_2)">
<path d="M1181.68 468C1168.6 468 1158 478.781 1158 492.081H1205.37C1205.37 478.781 1194.76 468 1181.68 468Z" fill="white"/>
</g>
<g filter="url(#filter9_d_90444_2)">
<path d="M1136.73 480.189C1108.16 480.189 1085 503.386 1085 532H1188.47C1188.47 503.386 1165.31 480.189 1136.73 480.189Z" fill="white"/>
</g>
<g filter="url(#filter10_d_90444_2)">
<path d="M1262.91 56C1241.42 56 1224 73.4609 1224 95H1301.81C1301.81 73.4609 1284.39 56 1262.91 56Z" fill="white"/>
</g>
<g filter="url(#filter11_d_90444_2)">
<path d="M1279.5 89C1267.07 89 1257 99.2975 1257 112H1302C1302 99.2975 1291.93 89 1279.5 89Z" fill="white"/>
</g>
<g filter="url(#filter12_d_90444_2)">
<path d="M275.5 95C263.074 95 253 105.297 253 118H298C298 105.297 287.926 95 275.5 95Z" fill="white"/>
</g>
<g filter="url(#filter13_d_90444_2)">
<path d="M75 255C75 213.026 41.6452 179 0.5 179V255H75Z" fill="white"/>
</g>
<g filter="url(#filter14_d_90444_2)">
<path d="M317.112 389C311.651 389 307.224 393.559 307.224 399.182H327C327 393.559 322.573 389 317.112 389Z" fill="white"/>
</g>
<g filter="url(#filter15_d_90444_2)">
<path d="M1223.5 40C1214.94 40 1208 47.1634 1208 56H1239C1239 47.1634 1232.06 40 1223.5 40Z" fill="white"/>
</g>
<g filter="url(#filter16_d_90444_2)">
<circle cx="515.5" cy="497.5" r="7.5" fill="white"/>
<circle cx="515.5" cy="497.5" r="6.5" stroke="#5E80FE" stroke-width="2"/>
</g>
<g filter="url(#filter17_d_90444_2)">
<mask id="path-28-inside-1_90444_2" fill="white">
<path fill-rule="evenodd" clip-rule="evenodd" d="M562 411C562 409.343 560.657 408 559 408H473C471.343 408 470 409.343 470 411V468.26C470 469.917 471.343 471.26 473 471.26H509.669C510.665 471.26 511.596 471.754 512.154 472.579L513.515 474.591C514.705 476.35 517.295 476.35 518.485 474.591L519.846 472.579C520.403 471.754 521.335 471.26 522.331 471.26H559C560.657 471.26 562 469.917 562 468.26V411Z"/>
</mask>
<path fill-rule="evenodd" clip-rule="evenodd" d="M562 411C562 409.343 560.657 408 559 408H473C471.343 408 470 409.343 470 411V468.26C470 469.917 471.343 471.26 473 471.26H509.669C510.665 471.26 511.596 471.754 512.154 472.579L513.515 474.591C514.705 476.35 517.295 476.35 518.485 474.591L519.846 472.579C520.403 471.754 521.335 471.26 522.331 471.26H559C560.657 471.26 562 469.917 562 468.26V411Z" fill="white"/>
<path d="M519.846 472.579L519.017 472.019L519.846 472.579ZM513.515 474.591L514.343 474.031L513.515 474.591ZM512.154 472.579L511.326 473.14L512.154 472.579ZM473 409H559V407H473V409ZM471 468.26V411H469V468.26H471ZM509.669 470.26H473V472.26H509.669V470.26ZM514.343 474.031L512.983 472.019L511.326 473.14L512.687 475.151L514.343 474.031ZM519.017 472.019L517.657 474.031L519.313 475.151L520.674 473.14L519.017 472.019ZM559 470.26H522.331V472.26H559V470.26ZM561 411V468.26H563V411H561ZM559 472.26C561.209 472.26 563 470.469 563 468.26H561C561 469.365 560.105 470.26 559 470.26V472.26ZM520.674 473.14C521.046 472.59 521.667 472.26 522.331 472.26V470.26C521.003 470.26 519.761 470.919 519.017 472.019L520.674 473.14ZM512.687 475.151C514.273 477.497 517.727 477.497 519.313 475.151L517.657 474.031C516.864 475.204 515.136 475.204 514.343 474.031L512.687 475.151ZM509.669 472.26C510.333 472.26 510.954 472.59 511.326 473.14L512.983 472.019C512.239 470.919 510.997 470.26 509.669 470.26V472.26ZM469 468.26C469 470.469 470.791 472.26 473 472.26V470.26C471.895 470.26 471 469.365 471 468.26H469ZM559 409C560.105 409 561 409.895 561 411H563C563 408.791 561.209 407 559 407V409ZM473 407C470.791 407 469 408.791 469 411H471C471 409.895 471.895 409 473 409V407Z" fill="#D8E0F7" mask="url(#path-28-inside-1_90444_2)"/>
<path d="M499 441.25C499 431.723 506.668 424 516.128 424C517.871 424 519.554 424.262 521.139 424.75" stroke="#5F82FF" stroke-width="4" stroke-linecap="round" stroke-linejoin="round"/>
<path fill-rule="evenodd" clip-rule="evenodd" d="M512.442 444.962C514.477 447.013 517.778 447.013 519.814 444.962C521.849 442.912 530.276 428.5 529.532 427.75C528.787 427 514.477 435.487 512.442 437.538C510.406 439.588 510.406 442.912 512.442 444.962ZM516.127 442.75C516.95 442.75 517.617 442.078 517.617 441.25C517.617 440.422 516.95 439.75 516.127 439.75C515.305 439.75 514.638 440.422 514.638 441.25C514.638 442.078 515.305 442.75 516.127 442.75Z" fill="#5F82FF"/>
<ellipse cx="501.234" cy="450.25" rx="1.48936" ry="1.5" fill="#5F82FF"/>
<ellipse cx="507.191" cy="456.25" rx="1.48936" ry="1.5" fill="#5F82FF"/>
<ellipse cx="516.128" cy="458.5" rx="1.48936" ry="1.5" fill="#5F82FF"/>
<ellipse cx="525.064" cy="456.25" rx="1.48936" ry="1.5" fill="#5F82FF"/>
<ellipse cx="530.277" cy="450.25" rx="1.48936" ry="1.5" fill="#5F82FF"/>
<ellipse cx="532.511" cy="441.25" rx="1.48936" ry="1.5" fill="#5F82FF"/>
</g>
<path d="M1434.35 571.297C1434.36 571.297 1434.38 571.303 1434.39 571.315C1434.4 571.326 1434.41 571.342 1434.41 571.362C1434.41 571.368 1434.41 571.375 1434.41 571.382L1434.21 571.962C1434.21 571.974 1434.2 571.983 1434.19 571.99C1434.18 571.996 1434.17 571.999 1434.16 572C1434.15 572 1434.13 571.997 1434.12 571.99C1434.11 571.983 1434.1 571.974 1434.1 571.961L1433.95 571.625L1433.96 571.631L1433.81 571.961C1433.81 571.974 1433.8 571.983 1433.79 571.99C1433.78 571.997 1433.77 572 1433.75 572C1433.74 571.999 1433.73 571.996 1433.72 571.99C1433.71 571.983 1433.7 571.974 1433.7 571.962L1433.5 571.382C1433.5 571.375 1433.5 571.368 1433.5 571.362C1433.5 571.342 1433.51 571.326 1433.52 571.315C1433.54 571.303 1433.55 571.297 1433.57 571.297C1433.58 571.297 1433.59 571.3 1433.6 571.307C1433.61 571.314 1433.62 571.323 1433.62 571.336L1433.78 571.818L1433.76 571.817L1433.9 571.476C1433.91 571.464 1433.92 571.455 1433.93 571.448C1433.94 571.441 1433.95 571.437 1433.96 571.438C1433.97 571.437 1433.98 571.441 1433.99 571.448C1434 571.455 1434.01 571.464 1434.02 571.476L1434.15 571.802L1434.13 571.812L1434.29 571.336C1434.29 571.323 1434.3 571.314 1434.31 571.307C1434.32 571.3 1434.33 571.297 1434.35 571.297ZM1434.73 572.01C1434.67 572.01 1434.62 571.998 1434.58 571.975C1434.54 571.951 1434.51 571.919 1434.49 571.878C1434.46 571.837 1434.45 571.791 1434.45 571.74C1434.45 571.68 1434.47 571.629 1434.49 571.587C1434.51 571.544 1434.55 571.512 1434.59 571.489C1434.62 571.466 1434.67 571.455 1434.71 571.455C1434.74 571.455 1434.78 571.462 1434.81 571.476C1434.84 571.49 1434.86 571.509 1434.89 571.534C1434.91 571.558 1434.93 571.586 1434.94 571.618C1434.96 571.65 1434.96 571.684 1434.96 571.72C1434.96 571.736 1434.96 571.749 1434.94 571.759C1434.93 571.769 1434.92 571.774 1434.9 571.774H1434.52L1434.49 571.674H1434.86L1434.84 571.694V571.667C1434.83 571.648 1434.83 571.63 1434.81 571.615C1434.8 571.6 1434.79 571.588 1434.77 571.579C1434.75 571.57 1434.73 571.565 1434.71 571.565C1434.69 571.565 1434.67 571.568 1434.65 571.573C1434.64 571.578 1434.62 571.587 1434.61 571.6C1434.6 571.613 1434.59 571.63 1434.58 571.651C1434.57 571.672 1434.57 571.699 1434.57 571.732C1434.57 571.768 1434.58 571.799 1434.59 571.824C1434.61 571.849 1434.62 571.868 1434.65 571.881C1434.67 571.894 1434.7 571.9 1434.72 571.9C1434.75 571.9 1434.77 571.898 1434.78 571.894C1434.8 571.89 1434.81 571.885 1434.82 571.88C1434.83 571.874 1434.84 571.869 1434.84 571.865C1434.86 571.859 1434.87 571.856 1434.88 571.856C1434.89 571.856 1434.9 571.861 1434.91 571.871C1434.92 571.881 1434.93 571.893 1434.93 571.906C1434.93 571.924 1434.92 571.94 1434.9 571.955C1434.88 571.97 1434.86 571.983 1434.83 571.994C1434.8 572.005 1434.76 572.01 1434.73 572.01ZM1435.34 571.455C1435.39 571.455 1435.43 571.467 1435.47 571.491C1435.51 571.514 1435.54 571.547 1435.56 571.588C1435.58 571.629 1435.59 571.677 1435.59 571.732C1435.59 571.787 1435.58 571.835 1435.56 571.877C1435.54 571.918 1435.51 571.951 1435.47 571.975C1435.43 571.998 1435.39 572.01 1435.35 572.01C1435.32 572.01 1435.3 572.006 1435.27 571.997C1435.25 571.988 1435.23 571.977 1435.21 571.964C1435.19 571.951 1435.18 571.937 1435.17 571.924C1435.16 571.91 1435.16 571.898 1435.16 571.889L1435.19 571.876V571.949C1435.19 571.966 1435.18 571.981 1435.17 571.993C1435.16 572.004 1435.15 572.01 1435.13 572.01C1435.11 572.01 1435.1 572.004 1435.08 571.993C1435.07 571.982 1435.07 571.967 1435.07 571.949V571.321C1435.07 571.304 1435.07 571.289 1435.08 571.278C1435.1 571.266 1435.11 571.26 1435.13 571.26C1435.15 571.26 1435.16 571.266 1435.17 571.278C1435.18 571.289 1435.19 571.304 1435.19 571.321V571.575L1435.17 571.566C1435.17 571.557 1435.18 571.547 1435.18 571.535C1435.19 571.522 1435.21 571.51 1435.22 571.498C1435.24 571.485 1435.26 571.475 1435.28 571.467C1435.3 571.459 1435.32 571.455 1435.34 571.455ZM1435.33 571.565C1435.3 571.565 1435.27 571.572 1435.25 571.587C1435.23 571.602 1435.21 571.622 1435.2 571.647C1435.19 571.672 1435.18 571.7 1435.18 571.732C1435.18 571.763 1435.19 571.792 1435.2 571.818C1435.21 571.843 1435.23 571.863 1435.25 571.878C1435.27 571.893 1435.3 571.9 1435.33 571.9C1435.36 571.9 1435.38 571.893 1435.41 571.878C1435.43 571.863 1435.44 571.843 1435.46 571.818C1435.47 571.792 1435.48 571.763 1435.48 571.732C1435.48 571.7 1435.47 571.672 1435.46 571.647C1435.44 571.622 1435.43 571.602 1435.41 571.587C1435.38 571.572 1435.36 571.565 1435.33 571.565ZM1435.78 572C1435.76 572 1435.74 571.994 1435.73 571.983C1435.71 571.971 1435.71 571.956 1435.71 571.939V571.361C1435.71 571.344 1435.71 571.329 1435.72 571.318C1435.73 571.306 1435.75 571.3 1435.77 571.3H1436.05C1436.09 571.3 1436.12 571.309 1436.15 571.328C1436.18 571.346 1436.21 571.371 1436.23 571.404C1436.24 571.436 1436.25 571.473 1436.25 571.515C1436.25 571.54 1436.25 571.565 1436.24 571.589C1436.23 571.613 1436.21 571.635 1436.2 571.654C1436.18 571.673 1436.16 571.688 1436.14 571.699L1436.14 571.676C1436.16 571.686 1436.17 571.698 1436.18 571.712C1436.2 571.725 1436.21 571.74 1436.21 571.756C1436.22 571.771 1436.22 571.788 1436.23 571.806C1436.23 571.823 1436.23 571.837 1436.23 571.85C1436.23 571.863 1436.23 571.873 1436.24 571.882C1436.24 571.891 1436.25 571.897 1436.25 571.902C1436.27 571.911 1436.28 571.923 1436.28 571.94C1436.29 571.956 1436.28 571.97 1436.27 571.983C1436.26 571.992 1436.25 571.997 1436.24 572C1436.23 572.002 1436.22 572.002 1436.21 572C1436.2 571.997 1436.19 571.994 1436.18 571.99C1436.17 571.983 1436.16 571.974 1436.15 571.961C1436.14 571.948 1436.13 571.93 1436.12 571.908C1436.11 571.886 1436.11 571.858 1436.11 571.823C1436.11 571.812 1436.11 571.801 1436.1 571.792C1436.1 571.782 1436.09 571.774 1436.09 571.767C1436.08 571.76 1436.07 571.754 1436.06 571.751C1436.05 571.747 1436.03 571.745 1436.02 571.745H1435.82L1435.83 571.722V571.939C1435.83 571.956 1435.83 571.971 1435.82 571.983C1435.81 571.994 1435.79 572 1435.78 572ZM1435.82 571.642H1436.05C1436.06 571.642 1436.07 571.637 1436.08 571.626C1436.1 571.615 1436.11 571.6 1436.11 571.581C1436.12 571.562 1436.12 571.541 1436.12 571.518C1436.12 571.489 1436.12 571.464 1436.1 571.445C1436.08 571.425 1436.07 571.415 1436.05 571.415H1435.82L1435.83 571.383V571.666L1435.82 571.642ZM1436.63 572.01C1436.57 572.01 1436.52 571.998 1436.48 571.975C1436.44 571.951 1436.41 571.919 1436.39 571.878C1436.36 571.837 1436.35 571.791 1436.35 571.74C1436.35 571.68 1436.36 571.629 1436.39 571.587C1436.41 571.544 1436.45 571.512 1436.48 571.489C1436.52 571.466 1436.57 571.455 1436.61 571.455C1436.64 571.455 1436.68 571.462 1436.71 571.476C1436.74 571.49 1436.76 571.509 1436.79 571.534C1436.81 571.558 1436.83 571.586 1436.84 571.618C1436.86 571.65 1436.86 571.684 1436.86 571.72C1436.86 571.736 1436.86 571.749 1436.84 571.759C1436.83 571.769 1436.82 571.774 1436.8 571.774H1436.42L1436.39 571.674H1436.76L1436.73 571.694V571.667C1436.73 571.648 1436.73 571.63 1436.71 571.615C1436.7 571.6 1436.69 571.588 1436.67 571.579C1436.65 571.57 1436.63 571.565 1436.61 571.565C1436.59 571.565 1436.57 571.568 1436.55 571.573C1436.54 571.578 1436.52 571.587 1436.51 571.6C1436.5 571.613 1436.49 571.63 1436.48 571.651C1436.47 571.672 1436.47 571.699 1436.47 571.732C1436.47 571.768 1436.47 571.799 1436.49 571.824C1436.5 571.849 1436.52 571.868 1436.55 571.881C1436.57 571.894 1436.6 571.9 1436.62 571.9C1436.65 571.9 1436.67 571.898 1436.68 571.894C1436.7 571.89 1436.71 571.885 1436.72 571.88C1436.73 571.874 1436.74 571.869 1436.74 571.865C1436.75 571.859 1436.77 571.856 1436.78 571.856C1436.79 571.856 1436.8 571.861 1436.81 571.871C1436.82 571.881 1436.83 571.893 1436.83 571.906C1436.83 571.924 1436.82 571.94 1436.8 571.955C1436.78 571.97 1436.76 571.983 1436.73 571.994C1436.7 572.005 1436.66 572.01 1436.63 572.01ZM1437.41 571.455C1437.43 571.455 1437.44 571.461 1437.45 571.472C1437.46 571.483 1437.47 571.498 1437.47 571.516V571.939C1437.47 571.956 1437.46 571.971 1437.45 571.983C1437.44 571.994 1437.43 572 1437.41 572C1437.39 572 1437.38 571.994 1437.37 571.983C1437.35 571.971 1437.35 571.956 1437.35 571.939V571.89L1437.37 571.899C1437.37 571.908 1437.37 571.918 1437.36 571.931C1437.35 571.943 1437.34 571.955 1437.32 571.967C1437.3 571.979 1437.28 571.989 1437.26 571.998C1437.24 572.006 1437.22 572.01 1437.19 572.01C1437.15 572.01 1437.1 571.998 1437.07 571.975C1437.03 571.951 1437 571.918 1436.98 571.877C1436.96 571.835 1436.95 571.787 1436.95 571.733C1436.95 571.678 1436.96 571.63 1436.98 571.589C1437 571.547 1437.03 571.514 1437.07 571.491C1437.1 571.467 1437.14 571.455 1437.19 571.455C1437.22 571.455 1437.24 571.459 1437.27 571.468C1437.29 571.477 1437.31 571.488 1437.33 571.501C1437.35 571.514 1437.36 571.528 1437.37 571.542C1437.38 571.555 1437.39 571.567 1437.39 571.576L1437.35 571.589V571.516C1437.35 571.499 1437.35 571.484 1437.37 571.473C1437.38 571.461 1437.39 571.455 1437.41 571.455ZM1437.21 571.9C1437.24 571.9 1437.26 571.893 1437.28 571.878C1437.31 571.863 1437.32 571.843 1437.34 571.818C1437.35 571.793 1437.35 571.764 1437.35 571.733C1437.35 571.701 1437.35 571.672 1437.34 571.647C1437.32 571.622 1437.31 571.602 1437.28 571.587C1437.26 571.572 1437.24 571.565 1437.21 571.565C1437.18 571.565 1437.15 571.572 1437.13 571.587C1437.11 571.602 1437.09 571.622 1437.08 571.647C1437.07 571.672 1437.06 571.701 1437.06 571.733C1437.06 571.764 1437.07 571.793 1437.08 571.818C1437.09 571.843 1437.11 571.863 1437.13 571.878C1437.15 571.893 1437.18 571.9 1437.21 571.9ZM1437.84 571.455C1437.88 571.455 1437.91 571.459 1437.94 571.467C1437.96 571.475 1437.99 571.486 1438 571.501C1438.02 571.515 1438.03 571.532 1438.03 571.552C1438.03 571.565 1438.02 571.578 1438.01 571.59C1438.01 571.601 1437.99 571.607 1437.98 571.607C1437.97 571.607 1437.96 571.606 1437.95 571.603C1437.95 571.6 1437.94 571.596 1437.93 571.591C1437.93 571.586 1437.92 571.582 1437.92 571.578C1437.91 571.574 1437.9 571.571 1437.88 571.569C1437.87 571.566 1437.86 571.565 1437.85 571.565C1437.82 571.565 1437.79 571.572 1437.77 571.587C1437.74 571.602 1437.73 571.622 1437.71 571.647C1437.7 571.672 1437.69 571.7 1437.69 571.733C1437.69 571.765 1437.7 571.794 1437.71 571.819C1437.73 571.844 1437.74 571.863 1437.77 571.878C1437.79 571.893 1437.82 571.9 1437.85 571.9C1437.86 571.9 1437.88 571.899 1437.89 571.897C1437.9 571.895 1437.91 571.892 1437.92 571.888C1437.93 571.883 1437.94 571.877 1437.95 571.871C1437.95 571.865 1437.96 571.862 1437.98 571.862C1438 571.862 1438.01 571.868 1438.02 571.879C1438.03 571.89 1438.03 571.903 1438.03 571.919C1438.03 571.936 1438.02 571.951 1438 571.965C1437.99 571.978 1437.96 571.989 1437.93 571.998C1437.9 572.006 1437.87 572.01 1437.83 572.01C1437.78 572.01 1437.73 571.998 1437.7 571.974C1437.66 571.949 1437.63 571.916 1437.61 571.874C1437.58 571.832 1437.57 571.785 1437.57 571.733C1437.57 571.678 1437.59 571.63 1437.61 571.589C1437.63 571.547 1437.66 571.514 1437.7 571.491C1437.74 571.467 1437.79 571.455 1437.84 571.455ZM1438.12 571.475H1438.36C1438.38 571.475 1438.39 571.48 1438.4 571.491C1438.41 571.502 1438.42 571.515 1438.42 571.531C1438.42 571.546 1438.41 571.559 1438.4 571.57C1438.39 571.58 1438.38 571.585 1438.36 571.585H1438.12C1438.11 571.585 1438.1 571.58 1438.08 571.569C1438.07 571.558 1438.07 571.545 1438.07 571.529C1438.07 571.514 1438.07 571.501 1438.08 571.491C1438.1 571.48 1438.11 571.475 1438.12 571.475ZM1438.23 571.35C1438.25 571.35 1438.26 571.356 1438.27 571.368C1438.29 571.379 1438.29 571.394 1438.29 571.411V571.856C1438.29 571.865 1438.29 571.873 1438.3 571.879C1438.3 571.885 1438.3 571.889 1438.31 571.892C1438.32 571.895 1438.32 571.896 1438.33 571.896C1438.34 571.896 1438.35 571.895 1438.35 571.892C1438.36 571.889 1438.37 571.887 1438.38 571.887C1438.39 571.887 1438.39 571.891 1438.4 571.9C1438.41 571.909 1438.41 571.921 1438.41 571.936C1438.41 571.955 1438.4 571.97 1438.38 571.982C1438.36 571.994 1438.34 572 1438.32 572C1438.3 572 1438.29 571.999 1438.27 571.997C1438.25 571.994 1438.24 571.989 1438.22 571.98C1438.21 571.971 1438.2 571.957 1438.19 571.938C1438.18 571.919 1438.17 571.894 1438.17 571.861V571.411C1438.17 571.394 1438.18 571.379 1438.19 571.368C1438.2 571.356 1438.21 571.35 1438.23 571.35ZM1439.04 571.733C1439.04 571.788 1439.03 571.836 1439.01 571.878C1438.98 571.919 1438.95 571.952 1438.91 571.975C1438.87 571.998 1438.82 572.01 1438.77 572.01C1438.72 572.01 1438.67 571.998 1438.63 571.975C1438.59 571.952 1438.56 571.919 1438.53 571.878C1438.51 571.836 1438.5 571.788 1438.5 571.733C1438.5 571.678 1438.51 571.63 1438.53 571.589C1438.56 571.547 1438.59 571.514 1438.63 571.491C1438.67 571.467 1438.72 571.455 1438.77 571.455C1438.82 571.455 1438.87 571.467 1438.91 571.491C1438.95 571.514 1438.98 571.547 1439.01 571.589C1439.03 571.63 1439.04 571.678 1439.04 571.733ZM1438.92 571.733C1438.92 571.699 1438.92 571.67 1438.9 571.645C1438.89 571.62 1438.87 571.6 1438.85 571.586C1438.82 571.572 1438.8 571.565 1438.77 571.565C1438.74 571.565 1438.72 571.572 1438.69 571.586C1438.67 571.6 1438.65 571.62 1438.64 571.645C1438.62 571.67 1438.62 571.699 1438.62 571.733C1438.62 571.766 1438.62 571.796 1438.64 571.821C1438.65 571.846 1438.67 571.865 1438.69 571.879C1438.72 571.893 1438.74 571.9 1438.77 571.9C1438.8 571.9 1438.82 571.893 1438.85 571.879C1438.87 571.865 1438.89 571.846 1438.9 571.821C1438.92 571.796 1438.92 571.766 1438.92 571.733ZM1439.21 572C1439.19 572 1439.18 571.994 1439.16 571.983C1439.15 571.971 1439.15 571.956 1439.15 571.939V571.526C1439.15 571.509 1439.15 571.494 1439.16 571.483C1439.18 571.471 1439.19 571.465 1439.21 571.465C1439.22 571.465 1439.24 571.471 1439.25 571.483C1439.26 571.494 1439.27 571.509 1439.27 571.526V571.62L1439.26 571.553C1439.27 571.537 1439.28 571.523 1439.29 571.511C1439.3 571.498 1439.31 571.488 1439.33 571.48C1439.34 571.471 1439.36 571.465 1439.38 571.461C1439.39 571.457 1439.41 571.455 1439.43 571.455C1439.45 571.455 1439.46 571.461 1439.48 571.472C1439.49 571.483 1439.5 571.497 1439.5 571.512C1439.5 571.534 1439.49 571.55 1439.48 571.56C1439.47 571.569 1439.46 571.574 1439.44 571.574C1439.43 571.574 1439.42 571.572 1439.41 571.567C1439.4 571.562 1439.39 571.56 1439.37 571.56C1439.36 571.56 1439.35 571.563 1439.34 571.569C1439.32 571.574 1439.31 571.583 1439.3 571.595C1439.29 571.607 1439.28 571.622 1439.28 571.64C1439.27 571.657 1439.27 571.678 1439.27 571.702V571.939C1439.27 571.956 1439.26 571.971 1439.25 571.983C1439.24 571.994 1439.22 572 1439.21 572Z" fill="black"/>
<defs>
<filter id="filter0_d_90444_2" x="902" y="334" width="45" height="45" filterUnits="userSpaceOnUse" color-interpolation-filters="sRGB">
<feFlood flood-opacity="0" result="BackgroundImageFix"/>
<feColorMatrix in="SourceAlpha" type="matrix" values="0 0 0 0 0 0 0 0 0 0 0 0 0 0 0 0 0 0 127 0" result="hardAlpha"/>
<feOffset/>
<feGaussianBlur stdDeviation="7.5"/>
<feColorMatrix type="matrix" values="0 0 0 0 0.323144 0 0 0 0 0.512664 0 0 0 0 1 0 0 0 0.25 0"/>
<feBlend mode="normal" in2="BackgroundImageFix" result="effect1_dropShadow_90444_2"/>
<feBlend mode="normal" in="SourceGraphic" in2="effect1_dropShadow_90444_2" result="shape"/>
</filter>
<filter id="filter1_d_90444_2" x="1310" y="220" width="45" height="45" filterUnits="userSpaceOnUse" color-interpolation-filters="sRGB">
<feFlood flood-opacity="0" result="BackgroundImageFix"/>
<feColorMatrix in="SourceAlpha" type="matrix" values="0 0 0 0 0 0 0 0 0 0 0 0 0 0 0 0 0 0 127 0" result="hardAlpha"/>
<feOffset/>
<feGaussianBlur stdDeviation="7.5"/>
<feColorMatrix type="matrix" values="0 0 0 0 0.323144 0 0 0 0 0.512664 0 0 0 0 1 0 0 0 0.25 0"/>
<feBlend mode="normal" in2="BackgroundImageFix" result="effect1_dropShadow_90444_2"/>
<feBlend mode="normal" in="SourceGraphic" in2="effect1_dropShadow_90444_2" result="shape"/>
</filter>
<filter id="filter2_d_90444_2" x="85" y="505" width="45" height="45" filterUnits="userSpaceOnUse" color-interpolation-filters="sRGB">
<feFlood flood-opacity="0" result="BackgroundImageFix"/>
<feColorMatrix in="SourceAlpha" type="matrix" values="0 0 0 0 0 0 0 0 0 0 0 0 0 0 0 0 0 0 127 0" result="hardAlpha"/>
<feOffset/>
<feGaussianBlur stdDeviation="7.5"/>
<feColorMatrix type="matrix" values="0 0 0 0 0.323144 0 0 0 0 0.512664 0 0 0 0 1 0 0 0 0.25 0"/>
<feBlend mode="normal" in2="BackgroundImageFix" result="effect1_dropShadow_90444_2"/>
<feBlend mode="normal" in="SourceGraphic" in2="effect1_dropShadow_90444_2" result="shape"/>
</filter>
<filter id="filter3_d_90444_2" x="208" y="361.48" width="113.441" height="101.949" filterUnits="userSpaceOnUse" color-interpolation-filters="sRGB">
<feFlood flood-opacity="0" result="BackgroundImageFix"/>
<feColorMatrix in="SourceAlpha" type="matrix" values="0 0 0 0 0 0 0 0 0 0 0 0 0 0 0 0 0 0 127 0" result="hardAlpha"/>
<feOffset dy="5"/>
<feGaussianBlur stdDeviation="22.5"/>
<feColorMatrix type="matrix" values="0 0 0 0 0.593724 0 0 0 0 0.684469 0 0 0 0 0.888646 0 0 0 0.1 0"/>
<feBlend mode="normal" in2="BackgroundImageFix" result="effect1_dropShadow_90444_2"/>
<feBlend mode="normal" in="SourceGraphic" in2="effect1_dropShadow_90444_2" result="shape"/>
</filter>
<filter id="filter4_d_90444_2" x="1339" y="370" width="145.5" height="145" filterUnits="userSpaceOnUse" color-interpolation-filters="sRGB">
<feFlood flood-opacity="0" result="BackgroundImageFix"/>
<feColorMatrix in="SourceAlpha" type="matrix" values="0 0 0 0 0 0 0 0 0 0 0 0 0 0 0 0 0 0 127 0" result="hardAlpha"/>
<feOffset dy="5"/>
<feGaussianBlur stdDeviation="22.5"/>
<feColorMatrix type="matrix" values="0 0 0 0 0.593724 0 0 0 0 0.684469 0 0 0 0 0.888646 0 0 0 0.1 0"/>
<feBlend mode="normal" in2="BackgroundImageFix" result="effect1_dropShadow_90444_2"/>
<feBlend mode="normal" in="SourceGraphic" in2="effect1_dropShadow_90444_2" result="shape"/>
</filter>
<filter id="filter5_d_90444_2" x="249.366" y="367.455" width="122.634" height="106.545" filterUnits="userSpaceOnUse" color-interpolation-filters="sRGB">
<feFlood flood-opacity="0" result="BackgroundImageFix"/>
<feColorMatrix in="SourceAlpha" type="matrix" values="0 0 0 0 0 0 0 0 0 0 0 0 0 0 0 0 0 0 127 0" result="hardAlpha"/>
<feOffset dy="5"/>
<feGaussianBlur stdDeviation="22.5"/>
<feColorMatrix type="matrix" values="0 0 0 0 0.593724 0 0 0 0 0.684469 0 0 0 0 0.888646 0 0 0 0.1 0"/>
<feBlend mode="normal" in2="BackgroundImageFix" result="effect1_dropShadow_90444_2"/>
<feBlend mode="normal" in="SourceGraphic" in2="effect1_dropShadow_90444_2" result="shape"/>
</filter>
<filter id="filter6_d_90444_2" x="216.273" y="359.182" width="139.64" height="114.818" filterUnits="userSpaceOnUse" color-interpolation-filters="sRGB">
<feFlood flood-opacity="0" result="BackgroundImageFix"/>
<feColorMatrix in="SourceAlpha" type="matrix" values="0 0 0 0 0 0 0 0 0 0 0 0 0 0 0 0 0 0 127 0" result="hardAlpha"/>
<feOffset dy="5"/>
<feGaussianBlur stdDeviation="22.5"/>
<feColorMatrix type="matrix" values="0 0 0 0 0.593724 0 0 0 0 0.684469 0 0 0 0 0.888646 0 0 0 0.1 0"/>
<feBlend mode="normal" in2="BackgroundImageFix" result="effect1_dropShadow_90444_2"/>
<feBlend mode="normal" in="SourceGraphic" in2="effect1_dropShadow_90444_2" result="shape"/>
</filter>
<filter id="filter7_d_90444_2" x="1126" y="457.459" width="158.021" height="124.541" filterUnits="userSpaceOnUse" color-interpolation-filters="sRGB">
<feFlood flood-opacity="0" result="BackgroundImageFix"/>
<feColorMatrix in="SourceAlpha" type="matrix" values="0 0 0 0 0 0 0 0 0 0 0 0 0 0 0 0 0 0 127 0" result="hardAlpha"/>
<feOffset dy="5"/>
<feGaussianBlur stdDeviation="22.5"/>
<feColorMatrix type="matrix" values="0 0 0 0 0.593724 0 0 0 0 0.684469 0 0 0 0 0.888646 0 0 0 0.1 0"/>
<feBlend mode="normal" in2="BackgroundImageFix" result="effect1_dropShadow_90444_2"/>
<feBlend mode="normal" in="SourceGraphic" in2="effect1_dropShadow_90444_2" result="shape"/>
</filter>
<filter id="filter8_d_90444_2" x="1113" y="428" width="137.367" height="114.081" filterUnits="userSpaceOnUse" color-interpolation-filters="sRGB">
<feFlood flood-opacity="0" result="BackgroundImageFix"/>
<feColorMatrix in="SourceAlpha" type="matrix" values="0 0 0 0 0 0 0 0 0 0 0 0 0 0 0 0 0 0 127 0" result="hardAlpha"/>
<feOffset dy="5"/>
<feGaussianBlur stdDeviation="22.5"/>
<feColorMatrix type="matrix" values="0 0 0 0 0.593724 0 0 0 0 0.684469 0 0 0 0 0.888646 0 0 0 0.1 0"/>
<feBlend mode="normal" in2="BackgroundImageFix" result="effect1_dropShadow_90444_2"/>
<feBlend mode="normal" in="SourceGraphic" in2="effect1_dropShadow_90444_2" result="shape"/>
</filter>
<filter id="filter9_d_90444_2" x="1040" y="440.189" width="193.469" height="141.811" filterUnits="userSpaceOnUse" color-interpolation-filters="sRGB">
<feFlood flood-opacity="0" result="BackgroundImageFix"/>
<feColorMatrix in="SourceAlpha" type="matrix" values="0 0 0 0 0 0 0 0 0 0 0 0 0 0 0 0 0 0 127 0" result="hardAlpha"/>
<feOffset dy="5"/>
<feGaussianBlur stdDeviation="22.5"/>
<feColorMatrix type="matrix" values="0 0 0 0 0.593724 0 0 0 0 0.684469 0 0 0 0 0.888646 0 0 0 0.1 0"/>
<feBlend mode="normal" in2="BackgroundImageFix" result="effect1_dropShadow_90444_2"/>
<feBlend mode="normal" in="SourceGraphic" in2="effect1_dropShadow_90444_2" result="shape"/>
</filter>
<filter id="filter10_d_90444_2" x="1179" y="16" width="167.814" height="129" filterUnits="userSpaceOnUse" color-interpolation-filters="sRGB">
<feFlood flood-opacity="0" result="BackgroundImageFix"/>
<feColorMatrix in="SourceAlpha" type="matrix" values="0 0 0 0 0 0 0 0 0 0 0 0 0 0 0 0 0 0 127 0" result="hardAlpha"/>
<feOffset dy="5"/>
<feGaussianBlur stdDeviation="22.5"/>
<feColorMatrix type="matrix" values="0 0 0 0 0.593724 0 0 0 0 0.684469 0 0 0 0 0.888646 0 0 0 0.1 0"/>
<feBlend mode="normal" in2="BackgroundImageFix" result="effect1_dropShadow_90444_2"/>
<feBlend mode="normal" in="SourceGraphic" in2="effect1_dropShadow_90444_2" result="shape"/>
</filter>
<filter id="filter11_d_90444_2" x="1212" y="49" width="135" height="113" filterUnits="userSpaceOnUse" color-interpolation-filters="sRGB">
<feFlood flood-opacity="0" result="BackgroundImageFix"/>
<feColorMatrix in="SourceAlpha" type="matrix" values="0 0 0 0 0 0 0 0 0 0 0 0 0 0 0 0 0 0 127 0" result="hardAlpha"/>
<feOffset dy="5"/>
<feGaussianBlur stdDeviation="22.5"/>
<feColorMatrix type="matrix" values="0 0 0 0 0.593724 0 0 0 0 0.684469 0 0 0 0 0.888646 0 0 0 0.1 0"/>
<feBlend mode="normal" in2="BackgroundImageFix" result="effect1_dropShadow_90444_2"/>
<feBlend mode="normal" in="SourceGraphic" in2="effect1_dropShadow_90444_2" result="shape"/>
</filter>
<filter id="filter12_d_90444_2" x="208" y="55" width="135" height="113" filterUnits="userSpaceOnUse" color-interpolation-filters="sRGB">
<feFlood flood-opacity="0" result="BackgroundImageFix"/>
<feColorMatrix in="SourceAlpha" type="matrix" values="0 0 0 0 0 0 0 0 0 0 0 0 0 0 0 0 0 0 127 0" result="hardAlpha"/>
<feOffset dy="5"/>
<feGaussianBlur stdDeviation="22.5"/>
<feColorMatrix type="matrix" values="0 0 0 0 0.593724 0 0 0 0 0.684469 0 0 0 0 0.888646 0 0 0 0.1 0"/>
<feBlend mode="normal" in2="BackgroundImageFix" result="effect1_dropShadow_90444_2"/>
<feBlend mode="normal" in="SourceGraphic" in2="effect1_dropShadow_90444_2" result="shape"/>
</filter>
<filter id="filter13_d_90444_2" x="-44.5" y="139" width="164.5" height="166" filterUnits="userSpaceOnUse" color-interpolation-filters="sRGB">
<feFlood flood-opacity="0" result="BackgroundImageFix"/>
<feColorMatrix in="SourceAlpha" type="matrix" values="0 0 0 0 0 0 0 0 0 0 0 0 0 0 0 0 0 0 127 0" result="hardAlpha"/>
<feOffset dy="5"/>
<feGaussianBlur stdDeviation="22.5"/>
<feColorMatrix type="matrix" values="0 0 0 0 0.593724 0 0 0 0 0.684469 0 0 0 0 0.888646 0 0 0 0.1 0"/>
<feBlend mode="normal" in2="BackgroundImageFix" result="effect1_dropShadow_90444_2"/>
<feBlend mode="normal" in="SourceGraphic" in2="effect1_dropShadow_90444_2" result="shape"/>
</filter>
<filter id="filter14_d_90444_2" x="262.224" y="349" width="109.776" height="100.182" filterUnits="userSpaceOnUse" color-interpolation-filters="sRGB">
<feFlood flood-opacity="0" result="BackgroundImageFix"/>
<feColorMatrix in="SourceAlpha" type="matrix" values="0 0 0 0 0 0 0 0 0 0 0 0 0 0 0 0 0 0 127 0" result="hardAlpha"/>
<feOffset dy="5"/>
<feGaussianBlur stdDeviation="22.5"/>
<feColorMatrix type="matrix" values="0 0 0 0 0.593724 0 0 0 0 0.684469 0 0 0 0 0.888646 0 0 0 0.1 0"/>
<feBlend mode="normal" in2="BackgroundImageFix" result="effect1_dropShadow_90444_2"/>
<feBlend mode="normal" in="SourceGraphic" in2="effect1_dropShadow_90444_2" result="shape"/>
</filter>
<filter id="filter15_d_90444_2" x="1163" y="0" width="121" height="106" filterUnits="userSpaceOnUse" color-interpolation-filters="sRGB">
<feFlood flood-opacity="0" result="BackgroundImageFix"/>
<feColorMatrix in="SourceAlpha" type="matrix" values="0 0 0 0 0 0 0 0 0 0 0 0 0 0 0 0 0 0 127 0" result="hardAlpha"/>
<feOffset dy="5"/>
<feGaussianBlur stdDeviation="22.5"/>
<feColorMatrix type="matrix" values="0 0 0 0 0.593724 0 0 0 0 0.684469 0 0 0 0 0.888646 0 0 0 0.1 0"/>
<feBlend mode="normal" in2="BackgroundImageFix" result="effect1_dropShadow_90444_2"/>
<feBlend mode="normal" in="SourceGraphic" in2="effect1_dropShadow_90444_2" result="shape"/>
</filter>
<filter id="filter16_d_90444_2" x="493" y="475" width="45" height="45" filterUnits="userSpaceOnUse" color-interpolation-filters="sRGB">
<feFlood flood-opacity="0" result="BackgroundImageFix"/>
<feColorMatrix in="SourceAlpha" type="matrix" values="0 0 0 0 0 0 0 0 0 0 0 0 0 0 0 0 0 0 127 0" result="hardAlpha"/>
<feOffset/>
<feGaussianBlur stdDeviation="7.5"/>
<feColorMatrix type="matrix" values="0 0 0 0 0.323144 0 0 0 0 0.512664 0 0 0 0 1 0 0 0 0.25 0"/>
<feBlend mode="normal" in2="BackgroundImageFix" result="effect1_dropShadow_90444_2"/>
<feBlend mode="normal" in="SourceGraphic" in2="effect1_dropShadow_90444_2" result="shape"/>
</filter>
<filter id="filter17_d_90444_2" x="440" y="388" width="152" height="127.911" filterUnits="userSpaceOnUse" color-interpolation-filters="sRGB">
<feFlood flood-opacity="0" result="BackgroundImageFix"/>
<feColorMatrix in="SourceAlpha" type="matrix" values="0 0 0 0 0 0 0 0 0 0 0 0 0 0 0 0 0 0 127 0" result="hardAlpha"/>
<feOffset dy="10"/>
<feGaussianBlur stdDeviation="15"/>
<feColorMatrix type="matrix" values="0 0 0 0 0.894415 0 0 0 0 0.918495 0 0 0 0 0.984716 0 0 0 1 0"/>
<feBlend mode="normal" in2="BackgroundImageFix" result="effect1_dropShadow_90444_2"/>
<feBlend mode="normal" in="SourceGraphic" in2="effect1_dropShadow_90444_2" result="shape"/>
</filter>
<linearGradient id="paint0_linear_90444_2" x1="278.466" y1="573.443" x2="278.466" y2="118.005" gradientUnits="userSpaceOnUse">
<stop stop-color="#4B71FF" stop-opacity="0"/>
<stop offset="1" stop-color="#6B89F8"/>
</linearGradient>
</defs>
</svg>
